<?xml version="1.0" encoding="UTF-8" standalone="no"?>
<!DOCTYPE svg PUBLIC "-//W3C//DTD SVG 1.1//EN"
 "http://www.w3.org/Graphics/SVG/1.1/DTD/svg11.dtd">
<!-- Generated by graphviz version 2.40.1 (20161225.0304)
 -->
<!-- Title: Tree Pages: 1 -->
<svg width="1082pt" height="433pt"
 viewBox="0.00 0.00 1081.50 433.00" xmlns="http://www.w3.org/2000/svg" xmlns:xlink="http://www.w3.org/1999/xlink">
<g id="graph0" class="graph" transform="scale(1 1) rotate(0) translate(4 429)">
<title>Tree</title>
<polygon fill="#ffffff" stroke="transparent" points="-4,4 -4,-429 1077.5,-429 1077.5,4 -4,4"/>
<!-- 0 -->
<g id="node1" class="node">
<title>0</title>
<path fill="none" stroke="#000000" d="M574,-425C574,-425 478,-425 478,-425 472,-425 466,-419 466,-413 466,-413 466,-354 466,-354 466,-348 472,-342 478,-342 478,-342 574,-342 574,-342 580,-342 586,-348 586,-354 586,-354 586,-413 586,-413 586,-419 580,-425 574,-425"/>
<text text-anchor="middle" x="526" y="-409.8" font-family="Helvetica,sans-Serif" font-size="14.00" fill="#000000">Age &lt;= 29.5</text>
<text text-anchor="middle" x="526" y="-394.8" font-family="Helvetica,sans-Serif" font-size="14.00" fill="#000000">gini = 0.365</text>
<text text-anchor="middle" x="526" y="-379.8" font-family="Helvetica,sans-Serif" font-size="14.00" fill="#000000">samples = 24420</text>
<text text-anchor="middle" x="526" y="-364.8" font-family="Helvetica,sans-Serif" font-size="14.00" fill="#000000">value = [18555, 5865]</text>
<text text-anchor="middle" x="526" y="-349.8" font-family="Helvetica,sans-Serif" font-size="14.00" fill="#000000">class = Target[&lt;=50K]</text>
</g>
<!-- 1 -->
<g id="node2" class="node">
<title>1</title>
<path fill="none" stroke="#000000" d="M486,-306C486,-306 390,-306 390,-306 384,-306 378,-300 378,-294 378,-294 378,-235 378,-235 378,-229 384,-223 390,-223 390,-223 486,-223 486,-223 492,-223 498,-229 498,-235 498,-235 498,-294 498,-294 498,-300 492,-306 486,-306"/>
<text text-anchor="middle" x="438" y="-290.8" font-family="Helvetica,sans-Serif" font-size="14.00" fill="#000000">Age &lt;= 25.5</text>
<text text-anchor="middle" x="438" y="-275.8" font-family="Helvetica,sans-Serif" font-size="14.00" fill="#000000">gini = 0.1</text>
<text text-anchor="middle" x="438" y="-260.8" font-family="Helvetica,sans-Serif" font-size="14.00" fill="#000000">samples = 7314</text>
<text text-anchor="middle" x="438" y="-245.8" font-family="Helvetica,sans-Serif" font-size="14.00" fill="#000000">value = [6927, 387]</text>
<text text-anchor="middle" x="438" y="-230.8" font-family="Helvetica,sans-Serif" font-size="14.00" fill="#000000">class = Target[&lt;=50K]</text>
</g>
<!-- 0&#45;&gt;1 -->
<g id="edge1" class="edge">
<title>0&#45;&gt;1</title>
<path fill="none" stroke="#000000" d="M495.2219,-341.8796C488.6949,-333.0534 481.7401,-323.6485 475.0092,-314.5466"/>
<polygon fill="#000000" stroke="#000000" points="477.6695,-312.2574 468.9095,-306.2981 472.0412,-316.4195 477.6695,-312.2574"/>
<text text-anchor="middle" x="465.2068" y="-327.3224" font-family="Helvetica,sans-Serif" font-size="14.00" fill="#000000">True</text>
</g>
<!-- 8 -->
<g id="node9" class="node">
<title>8</title>
<path fill="none" stroke="#000000" d="M693,-306C693,-306 597,-306 597,-306 591,-306 585,-300 585,-294 585,-294 585,-235 585,-235 585,-229 591,-223 597,-223 597,-223 693,-223 693,-223 699,-223 705,-229 705,-235 705,-235 705,-294 705,-294 705,-300 699,-306 693,-306"/>
<text text-anchor="middle" x="645" y="-290.8" font-family="Helvetica,sans-Serif" font-size="14.00" fill="#000000">C(Sex)[T.Male] &lt;= 0.5</text>
<text text-anchor="middle" x="645" y="-275.8" font-family="Helvetica,sans-Serif" font-size="14.00" fill="#000000">gini = 0.435</text>
<text text-anchor="middle" x="645" y="-260.8" font-family="Helvetica,sans-Serif" font-size="14.00" fill="#000000">samples = 17106</text>
<text text-anchor="middle" x="645" y="-245.8" font-family="Helvetica,sans-Serif" font-size="14.00" fill="#000000">value = [11628, 5478]</text>
<text text-anchor="middle" x="645" y="-230.8" font-family="Helvetica,sans-Serif" font-size="14.00" fill="#000000">class = Target[&lt;=50K]</text>
</g>
<!-- 0&#45;&gt;8 -->
<g id="edge8" class="edge">
<title>0&#45;&gt;8</title>
<path fill="none" stroke="#000000" d="M567.6204,-341.8796C576.8069,-332.6931 586.6202,-322.8798 596.0664,-313.4336"/>
<polygon fill="#000000" stroke="#000000" points="598.6057,-315.8441 603.2019,-306.2981 593.6559,-310.8943 598.6057,-315.8441"/>
<text text-anchor="middle" x="603.2019" y="-327.5981" font-family="Helvetica,sans-Serif" font-size="14.00" fill="#000000">False</text>
</g>
<!-- 2 -->
<g id="node3" class="node">
<title>2</title>
<path fill="none" stroke="#000000" d="M265,-187C265,-187 131,-187 131,-187 125,-187 119,-181 119,-175 119,-175 119,-116 119,-116 119,-110 125,-104 131,-104 131,-104 265,-104 265,-104 271,-104 277,-110 277,-116 277,-116 277,-175 277,-175 277,-181 271,-187 265,-187"/>
<text text-anchor="middle" x="198" y="-171.8" font-family="Helvetica,sans-Serif" font-size="14.00" fill="#000000">C(Relationship)[T.Wife] &lt;= 0.5</text>
<text text-anchor="middle" x="198" y="-156.8" font-family="Helvetica,sans-Serif" font-size="14.00" fill="#000000">gini = 0.035</text>
<text text-anchor="middle" x="198" y="-141.8" font-family="Helvetica,sans-Serif" font-size="14.00" fill="#000000">samples = 4823</text>
<text text-anchor="middle" x="198" y="-126.8" font-family="Helvetica,sans-Serif" font-size="14.00" fill="#000000">value = [4738, 85]</text>
<text text-anchor="middle" x="198" y="-111.8" font-family="Helvetica,sans-Serif" font-size="14.00" fill="#000000">class = Target[&lt;=50K]</text>
</g>
<!-- 1&#45;&gt;2 -->
<g id="edge2" class="edge">
<title>1&#45;&gt;2</title>
<path fill="none" stroke="#000000" d="M377.7477,-234.6249C350.1897,-220.9607 316.9876,-204.498 286.658,-189.4596"/>
<polygon fill="#000000" stroke="#000000" points="287.861,-186.1495 277.347,-184.8429 284.7514,-192.4209 287.861,-186.1495"/>
</g>
<!-- 5 -->
<g id="node6" class="node">
<title>5</title>
<path fill="none" stroke="#000000" d="M505,-187C505,-187 371,-187 371,-187 365,-187 359,-181 359,-175 359,-175 359,-116 359,-116 359,-110 365,-104 371,-104 371,-104 505,-104 505,-104 511,-104 517,-110 517,-116 517,-116 517,-175 517,-175 517,-181 511,-187 505,-187"/>
<text text-anchor="middle" x="438" y="-171.8" font-family="Helvetica,sans-Serif" font-size="14.00" fill="#000000">C(Relationship)[T.Wife] &lt;= 0.5</text>
<text text-anchor="middle" x="438" y="-156.8" font-family="Helvetica,sans-Serif" font-size="14.00" fill="#000000">gini = 0.213</text>
<text text-anchor="middle" x="438" y="-141.8" font-family="Helvetica,sans-Serif" font-size="14.00" fill="#000000">samples = 2491</text>
<text text-anchor="middle" x="438" y="-126.8" font-family="Helvetica,sans-Serif" font-size="14.00" fill="#000000">value = [2189, 302]</text>
<text text-anchor="middle" x="438" y="-111.8" font-family="Helvetica,sans-Serif" font-size="14.00" fill="#000000">class = Target[&lt;=50K]</text>
</g>
<!-- 1&#45;&gt;5 -->
<g id="edge5" class="edge">
<title>1&#45;&gt;5</title>
<path fill="none" stroke="#000000" d="M438,-222.8796C438,-214.6838 438,-205.9891 438,-197.5013"/>
<polygon fill="#000000" stroke="#000000" points="441.5001,-197.298 438,-187.2981 434.5001,-197.2981 441.5001,-197.298"/>
</g>
<!-- 3 -->
<g id="node4" class="node">
<title>3</title>
<path fill="none" stroke="#000000" d="M108,-68C108,-68 12,-68 12,-68 6,-68 0,-62 0,-56 0,-56 0,-12 0,-12 0,-6 6,0 12,0 12,0 108,0 108,0 114,0 120,-6 120,-12 120,-12 120,-56 120,-56 120,-62 114,-68 108,-68"/>
<text text-anchor="middle" x="60" y="-52.8" font-family="Helvetica,sans-Serif" font-size="14.00" fill="#000000">gini = 0.029</text>
<text text-anchor="middle" x="60" y="-37.8" font-family="Helvetica,sans-Serif" font-size="14.00" fill="#000000">samples = 4732</text>
<text text-anchor="middle" x="60" y="-22.8" font-family="Helvetica,sans-Serif" font-size="14.00" fill="#000000">value = [4662, 70]</text>
<text text-anchor="middle" x="60" y="-7.8" font-family="Helvetica,sans-Serif" font-size="14.00" fill="#000000">class = Target[&lt;=50K]</text>
</g>
<!-- 2&#45;&gt;3 -->
<g id="edge3" class="edge">
<title>2&#45;&gt;3</title>
<path fill="none" stroke="#000000" d="M146.6139,-103.9815C134.7839,-94.4232 122.2136,-84.2668 110.4249,-74.7419"/>
<polygon fill="#000000" stroke="#000000" points="112.3851,-71.826 102.4071,-68.2637 107.9858,-77.2708 112.3851,-71.826"/>
</g>
<!-- 4 -->
<g id="node5" class="node">
<title>4</title>
<path fill="none" stroke="#000000" d="M246,-68C246,-68 150,-68 150,-68 144,-68 138,-62 138,-56 138,-56 138,-12 138,-12 138,-6 144,0 150,0 150,0 246,0 246,0 252,0 258,-6 258,-12 258,-12 258,-56 258,-56 258,-62 252,-68 246,-68"/>
<text text-anchor="middle" x="198" y="-52.8" font-family="Helvetica,sans-Serif" font-size="14.00" fill="#000000">gini = 0.275</text>
<text text-anchor="middle" x="198" y="-37.8" font-family="Helvetica,sans-Serif" font-size="14.00" fill="#000000">samples = 91</text>
<text text-anchor="middle" x="198" y="-22.8" font-family="Helvetica,sans-Serif" font-size="14.00" fill="#000000">value = [76, 15]</text>
<text text-anchor="middle" x="198" y="-7.8" font-family="Helvetica,sans-Serif" font-size="14.00" fill="#000000">class = Target[&lt;=50K]</text>
</g>
<!-- 2&#45;&gt;4 -->
<g id="edge4" class="edge">
<title>2&#45;&gt;4</title>
<path fill="none" stroke="#000000" d="M198,-103.9815C198,-95.618 198,-86.7965 198,-78.3409"/>
<polygon fill="#000000" stroke="#000000" points="201.5001,-78.2636 198,-68.2637 194.5001,-78.2637 201.5001,-78.2636"/>
</g>
<!-- 6 -->
<g id="node7" class="node">
<title>6</title>
<path fill="none" stroke="#000000" d="M384,-68C384,-68 288,-68 288,-68 282,-68 276,-62 276,-56 276,-56 276,-12 276,-12 276,-6 282,0 288,0 288,0 384,0 384,0 390,0 396,-6 396,-12 396,-12 396,-56 396,-56 396,-62 390,-68 384,-68"/>
<text text-anchor="middle" x="336" y="-52.8" font-family="Helvetica,sans-Serif" font-size="14.00" fill="#000000">gini = 0.186</text>
<text text-anchor="middle" x="336" y="-37.8" font-family="Helvetica,sans-Serif" font-size="14.00" fill="#000000">samples = 2345</text>
<text text-anchor="middle" x="336" y="-22.8" font-family="Helvetica,sans-Serif" font-size="14.00" fill="#000000">value = [2101, 244]</text>
<text text-anchor="middle" x="336" y="-7.8" font-family="Helvetica,sans-Serif" font-size="14.00" fill="#000000">class = Target[&lt;=50K]</text>
</g>
<!-- 5&#45;&gt;6 -->
<g id="edge6" class="edge">
<title>5&#45;&gt;6</title>
<path fill="none" stroke="#000000" d="M400.019,-103.9815C391.6114,-94.7908 382.6979,-85.0472 374.2785,-75.8436"/>
<polygon fill="#000000" stroke="#000000" points="376.6766,-73.2797 367.3443,-68.2637 371.5117,-78.0045 376.6766,-73.2797"/>
</g>
<!-- 7 -->
<g id="node8" class="node">
<title>7</title>
<path fill="none" stroke="#000000" d="M522,-68C522,-68 426,-68 426,-68 420,-68 414,-62 414,-56 414,-56 414,-12 414,-12 414,-6 420,0 426,0 426,0 522,0 522,0 528,0 534,-6 534,-12 534,-12 534,-56 534,-56 534,-62 528,-68 522,-68"/>
<text text-anchor="middle" x="474" y="-52.8" font-family="Helvetica,sans-Serif" font-size="14.00" fill="#000000">gini = 0.479</text>
<text text-anchor="middle" x="474" y="-37.8" font-family="Helvetica,sans-Serif" font-size="14.00" fill="#000000">samples = 146</text>
<text text-anchor="middle" x="474" y="-22.8" font-family="Helvetica,sans-Serif" font-size="14.00" fill="#000000">value = [88, 58]</text>
<text text-anchor="middle" x="474" y="-7.8" font-family="Helvetica,sans-Serif" font-size="14.00" fill="#000000">class = Target[&lt;=50K]</text>
</g>
<!-- 5&#45;&gt;7 -->
<g id="edge7" class="edge">
<title>5&#45;&gt;7</title>
<path fill="none" stroke="#000000" d="M451.4051,-103.9815C454.1647,-95.4342 457.0788,-86.4086 459.8635,-77.7839"/>
<polygon fill="#000000" stroke="#000000" points="463.1954,-78.8554 462.9373,-68.2637 456.534,-76.7046 463.1954,-78.8554"/>
</g>
<!-- 9 -->
<g id="node10" class="node">
<title>9</title>
<path fill="none" stroke="#000000" d="M712,-187C712,-187 578,-187 578,-187 572,-187 566,-181 566,-175 566,-175 566,-116 566,-116 566,-110 572,-104 578,-104 578,-104 712,-104 712,-104 718,-104 724,-110 724,-116 724,-116 724,-175 724,-175 724,-181 718,-187 712,-187"/>
<text text-anchor="middle" x="645" y="-171.8" font-family="Helvetica,sans-Serif" font-size="14.00" fill="#000000">C(Relationship)[T.Wife] &lt;= 0.5</text>
<text text-anchor="middle" x="645" y="-156.8" font-family="Helvetica,sans-Serif" font-size="14.00" fill="#000000">gini = 0.265</text>
<text text-anchor="middle" x="645" y="-141.8" font-family="Helvetica,sans-Serif" font-size="14.00" fill="#000000">samples = 5037</text>
<text text-anchor="middle" x="645" y="-126.8" font-family="Helvetica,sans-Serif" font-size="14.00" fill="#000000">value = [4245, 792]</text>
<text text-anchor="middle" x="645" y="-111.8" font-family="Helvetica,sans-Serif" font-size="14.00" fill="#000000">class = Target[&lt;=50K]</text>
</g>
<!-- 8&#45;&gt;9 -->
<g id="edge9" class="edge">
<title>8&#45;&gt;9</title>
<path fill="none" stroke="#000000" d="M645,-222.8796C645,-214.6838 645,-205.9891 645,-197.5013"/>
<polygon fill="#000000" stroke="#000000" points="648.5001,-197.298 645,-187.2981 641.5001,-197.2981 648.5001,-197.298"/>
</g>
<!-- 12 -->
<g id="node13" class="node">
<title>12</title>
<path fill="none" stroke="#000000" d="M975.5,-187C975.5,-187 788.5,-187 788.5,-187 782.5,-187 776.5,-181 776.5,-175 776.5,-175 776.5,-116 776.5,-116 776.5,-110 782.5,-104 788.5,-104 788.5,-104 975.5,-104 975.5,-104 981.5,-104 987.5,-110 987.5,-116 987.5,-116 987.5,-175 987.5,-175 987.5,-181 981.5,-187 975.5,-187"/>
<text text-anchor="middle" x="882" y="-171.8" font-family="Helvetica,sans-Serif" font-size="14.00" fill="#000000">C(Occupation)[T.Exec&#45;managerial] &lt;= 0.5</text>
<text text-anchor="middle" x="882" y="-156.8" font-family="Helvetica,sans-Serif" font-size="14.00" fill="#000000">gini = 0.475</text>
<text text-anchor="middle" x="882" y="-141.8" font-family="Helvetica,sans-Serif" font-size="14.00" fill="#000000">samples = 12069</text>
<text text-anchor="middle" x="882" y="-126.8" font-family="Helvetica,sans-Serif" font-size="14.00" fill="#000000">value = [7383, 4686]</text>
<text text-anchor="middle" x="882" y="-111.8" font-family="Helvetica,sans-Serif" font-size="14.00" fill="#000000">class = Target[&lt;=50K]</text>
</g>
<!-- 8&#45;&gt;12 -->
<g id="edge12" class="edge">
<title>8&#45;&gt;12</title>
<path fill="none" stroke="#000000" d="M705.1115,-234.3174C730.8502,-221.3938 761.4886,-206.01 789.9756,-191.7063"/>
<polygon fill="#000000" stroke="#000000" points="791.7739,-194.7199 799.1401,-187.1048 788.6328,-188.4642 791.7739,-194.7199"/>
</g>
<!-- 10 -->
<g id="node11" class="node">
<title>10</title>
<path fill="none" stroke="#000000" d="M660,-68C660,-68 564,-68 564,-68 558,-68 552,-62 552,-56 552,-56 552,-12 552,-12 552,-6 558,0 564,0 564,0 660,0 660,0 666,0 672,-6 672,-12 672,-12 672,-56 672,-56 672,-62 666,-68 660,-68"/>
<text text-anchor="middle" x="612" y="-52.8" font-family="Helvetica,sans-Serif" font-size="14.00" fill="#000000">gini = 0.134</text>
<text text-anchor="middle" x="612" y="-37.8" font-family="Helvetica,sans-Serif" font-size="14.00" fill="#000000">samples = 4107</text>
<text text-anchor="middle" x="612" y="-22.8" font-family="Helvetica,sans-Serif" font-size="14.00" fill="#000000">value = [3811, 296]</text>
<text text-anchor="middle" x="612" y="-7.8" font-family="Helvetica,sans-Serif" font-size="14.00" fill="#000000">class = Target[&lt;=50K]</text>
</g>
<!-- 9&#45;&gt;10 -->
<g id="edge10" class="edge">
<title>9&#45;&gt;10</title>
<path fill="none" stroke="#000000" d="M632.712,-103.9815C630.2095,-95.5261 627.5685,-86.6026 625.0409,-78.0623"/>
<polygon fill="#000000" stroke="#000000" points="628.3349,-76.8592 622.1408,-68.2637 621.6227,-78.8458 628.3349,-76.8592"/>
</g>
<!-- 11 -->
<g id="node12" class="node">
<title>11</title>
<path fill="none" stroke="#000000" d="M791.5,-68C791.5,-68 702.5,-68 702.5,-68 696.5,-68 690.5,-62 690.5,-56 690.5,-56 690.5,-12 690.5,-12 690.5,-6 696.5,0 702.5,0 702.5,0 791.5,0 791.5,0 797.5,0 803.5,-6 803.5,-12 803.5,-12 803.5,-56 803.5,-56 803.5,-62 797.5,-68 791.5,-68"/>
<text text-anchor="middle" x="747" y="-52.8" font-family="Helvetica,sans-Serif" font-size="14.00" fill="#000000">gini = 0.498</text>
<text text-anchor="middle" x="747" y="-37.8" font-family="Helvetica,sans-Serif" font-size="14.00" fill="#000000">samples = 930</text>
<text text-anchor="middle" x="747" y="-22.8" font-family="Helvetica,sans-Serif" font-size="14.00" fill="#000000">value = [434, 496]</text>
<text text-anchor="middle" x="747" y="-7.8" font-family="Helvetica,sans-Serif" font-size="14.00" fill="#000000">class = Target[&gt;50K]</text>
</g>
<!-- 9&#45;&gt;11 -->
<g id="edge11" class="edge">
<title>9&#45;&gt;11</title>
<path fill="none" stroke="#000000" d="M682.981,-103.9815C691.3886,-94.7908 700.3021,-85.0472 708.7215,-75.8436"/>
<polygon fill="#000000" stroke="#000000" points="711.4883,-78.0045 715.6557,-68.2637 706.3234,-73.2797 711.4883,-78.0045"/>
</g>
<!-- 13 -->
<g id="node14" class="node">
<title>13</title>
<path fill="none" stroke="#000000" d="M930,-68C930,-68 834,-68 834,-68 828,-68 822,-62 822,-56 822,-56 822,-12 822,-12 822,-6 828,0 834,0 834,0 930,0 930,0 936,0 942,-6 942,-12 942,-12 942,-56 942,-56 942,-62 936,-68 930,-68"/>
<text text-anchor="middle" x="882" y="-52.8" font-family="Helvetica,sans-Serif" font-size="14.00" fill="#000000">gini = 0.45</text>
<text text-anchor="middle" x="882" y="-37.8" font-family="Helvetica,sans-Serif" font-size="14.00" fill="#000000">samples = 10144</text>
<text text-anchor="middle" x="882" y="-22.8" font-family="Helvetica,sans-Serif" font-size="14.00" fill="#000000">value = [6676, 3468]</text>
<text text-anchor="middle" x="882" y="-7.8" font-family="Helvetica,sans-Serif" font-size="14.00" fill="#000000">class = Target[&lt;=50K]</text>
</g>
<!-- 12&#45;&gt;13 -->
<g id="edge13" class="edge">
<title>12&#45;&gt;13</title>
<path fill="none" stroke="#000000" d="M882,-103.9815C882,-95.618 882,-86.7965 882,-78.3409"/>
<polygon fill="#000000" stroke="#000000" points="885.5001,-78.2636 882,-68.2637 878.5001,-78.2637 885.5001,-78.2636"/>
</g>
<!-- 14 -->
<g id="node15" class="node">
<title>14</title>
<path fill="none" stroke="#000000" d="M1061.5,-68C1061.5,-68 972.5,-68 972.5,-68 966.5,-68 960.5,-62 960.5,-56 960.5,-56 960.5,-12 960.5,-12 960.5,-6 966.5,0 972.5,0 972.5,0 1061.5,0 1061.5,0 1067.5,0 1073.5,-6 1073.5,-12 1073.5,-12 1073.5,-56 1073.5,-56 1073.5,-62 1067.5,-68 1061.5,-68"/>
<text text-anchor="middle" x="1017" y="-52.8" font-family="Helvetica,sans-Serif" font-size="14.00" fill="#000000">gini = 0.465</text>
<text text-anchor="middle" x="1017" y="-37.8" font-family="Helvetica,sans-Serif" font-size="14.00" fill="#000000">samples = 1925</text>
<text text-anchor="middle" x="1017" y="-22.8" font-family="Helvetica,sans-Serif" font-size="14.00" fill="#000000">value = [707, 1218]</text>
<text text-anchor="middle" x="1017" y="-7.8" font-family="Helvetica,sans-Serif" font-size="14.00" fill="#000000">class = Target[&gt;50K]</text>
</g>
<!-- 12&#45;&gt;14 -->
<g id="edge14" class="edge">
<title>12&#45;&gt;14</title>
<path fill="none" stroke="#000000" d="M932.269,-103.9815C943.8418,-94.4232 956.1389,-84.2668 967.6713,-74.7419"/>
<polygon fill="#000000" stroke="#000000" points="970.0334,-77.3304 975.5148,-68.2637 965.5757,-71.9332 970.0334,-77.3304"/>
</g>
</g>
</svg>
