<?xml version="1.0" encoding="UTF-8" standalone="no"?>
<!DOCTYPE svg PUBLIC "-//W3C//DTD SVG 1.1//EN"
 "http://www.w3.org/Graphics/SVG/1.1/DTD/svg11.dtd">
<!-- Generated by graphviz version 2.40.1 (20161225.0304)
 -->
<!-- Title: Tree Pages: 1 -->
<svg width="188pt" height="165pt"
 viewBox="0.00 0.00 188.00 165.00" xmlns="http://www.w3.org/2000/svg" xmlns:xlink="http://www.w3.org/1999/xlink">
<g id="graph0" class="graph" transform="scale(1 1) rotate(0) translate(4 161)">
<title>Tree</title>
<polygon fill="#ffffff" stroke="transparent" points="-4,4 -4,-161 184,-161 184,4 -4,4"/>
<!-- 0 -->
<g id="node1" class="node">
<title>0</title>
<polygon fill="none" stroke="#000000" points="133,-157 49,-157 49,-89 133,-89 133,-157"/>
<text text-anchor="middle" x="91" y="-141.8" font-family="Times,serif" font-size="14.00" fill="#000000">X[0] &lt;= 49.5</text>
<text text-anchor="middle" x="91" y="-126.8" font-family="Times,serif" font-size="14.00" fill="#000000">gini = 0.5</text>
<text text-anchor="middle" x="91" y="-111.8" font-family="Times,serif" font-size="14.00" fill="#000000">samples = 42</text>
<text text-anchor="middle" x="91" y="-96.8" font-family="Times,serif" font-size="14.00" fill="#000000">value = [21, 21]</text>
</g>
<!-- 1 -->
<g id="node2" class="node">
<title>1</title>
<polygon fill="none" stroke="#000000" points="84,-53 0,-53 0,0 84,0 84,-53"/>
<text text-anchor="middle" x="42" y="-37.8" font-family="Times,serif" font-size="14.00" fill="#000000">gini = 0.464</text>
<text text-anchor="middle" x="42" y="-22.8" font-family="Times,serif" font-size="14.00" fill="#000000">samples = 30</text>
<text text-anchor="middle" x="42" y="-7.8" font-family="Times,serif" font-size="14.00" fill="#000000">value = [11, 19]</text>
</g>
<!-- 0&#45;&gt;1 -->
<g id="edge1" class="edge">
<title>0&#45;&gt;1</title>
<path fill="none" stroke="#000000" d="M73.7244,-88.9777C69.3538,-80.3702 64.6462,-71.0992 60.23,-62.402"/>
<polygon fill="#000000" stroke="#000000" points="63.2304,-60.5802 55.5821,-53.2485 56.9889,-63.7495 63.2304,-60.5802"/>
<text text-anchor="middle" x="47.8236" y="-73.3141" font-family="Times,serif" font-size="14.00" fill="#000000">True</text>
</g>
<!-- 2 -->
<g id="node3" class="node">
<title>2</title>
<polygon fill="none" stroke="#000000" points="180,-53 102,-53 102,0 180,0 180,-53"/>
<text text-anchor="middle" x="141" y="-37.8" font-family="Times,serif" font-size="14.00" fill="#000000">gini = 0.278</text>
<text text-anchor="middle" x="141" y="-22.8" font-family="Times,serif" font-size="14.00" fill="#000000">samples = 12</text>
<text text-anchor="middle" x="141" y="-7.8" font-family="Times,serif" font-size="14.00" fill="#000000">value = [10, 2]</text>
</g>
<!-- 0&#45;&gt;2 -->
<g id="edge2" class="edge">
<title>0&#45;&gt;2</title>
<path fill="none" stroke="#000000" d="M108.6281,-88.9777C113.088,-80.3702 117.8916,-71.0992 122.3979,-62.402"/>
<polygon fill="#000000" stroke="#000000" points="125.6478,-63.7376 127.1407,-53.2485 119.4325,-60.5172 125.6478,-63.7376"/>
<text text-anchor="middle" x="134.704" y="-73.377" font-family="Times,serif" font-size="14.00" fill="#000000">False</text>
</g>
</g>
</svg>
